Coordinates
version=1
nRows=9
nColumns=24
inDegrees=yes

Units are S.I. units (second, meters, Newtons, ...)
Angles are in degrees.

endheader
time	pelvis_tilt	pelvis_list	pelvis_rotation	pelvis_tx	pelvis_ty	pelvis_tz	hip_flexion_r	hip_adduction_r	hip_rotation_r	knee_angle_r	ankle_angle_r	subtalar_angle_r	mtp_angle_r	hip_flexion_l	hip_adduction_l	hip_rotation_l	knee_angle_l	ankle_angle_l	subtalar_angle_l	mtp_angle_l	lumbar_extension	lumbar_bending	lumbar_rotation
      2.81000000	     43.14766463	      1.74275862	     -2.91587184	     -0.81936108	      1.02017227	     -0.28477329	     13.88812958	     -9.54663001	      9.81158939	    -47.15782775	    -15.13387882	     12.22292820	      0.00000000	     14.75102430	    -14.07128073	     -5.60324095	    -57.53812515	    -22.23701496	     14.25285652	      0.00000000	    -32.06756930	    -11.81210595	      2.67018794
      2.82000000	     43.19927634	      1.79498793	     -2.81469945	     -0.81941346	      1.02009855	     -0.28452955	     13.55303795	     -9.66383882	      9.87008019	    -44.82820183	    -15.16908503	     12.07121183	      0.00000000	     14.72639730	    -14.07111561	     -5.57593119	    -57.50840746	    -22.27175868	     14.29879459	      0.00000000	    -32.15512216	    -11.83797434	      2.58511685
      2.83000000	     43.24129330	      1.88634405	     -2.69034783	     -0.81928576	      1.01999395	     -0.28417381	     13.33961706	     -9.79178668	     10.02786191	    -42.66733330	    -15.15242517	     11.93856762	      0.00000000	     14.73619965	    -14.04362676	     -5.52412876	    -57.53434183	    -22.28033668	     14.38772250	      0.00000000	    -32.21483354	    -11.89921904	      2.48758311
      2.84000000	     43.27452188	      1.99855961	     -2.54975725	     -0.81891896	      1.01990138	     -0.28370777	     13.24162315	     -9.91988685	     10.25237915	    -40.69243271	    -15.14053658	     11.83348685	      0.00000000	     14.76499512	    -14.00564499	     -5.45529756	    -57.58988099	    -22.26877853	     14.51069553	      0.00000000	    -32.24327379	    -11.98638112	      2.38364208
      2.85000000	     43.28822565	      2.11555826	     -2.41672520	     -0.81856306	      1.01977633	     -0.28326096	     13.23780685	    -10.04061234	     10.50691624	    -38.89995445	    -15.16165180	     11.76754601	      0.00000000	     14.80669086	    -13.96712742	     -5.38100806	    -57.64949213	    -22.24102250	     14.65184511	      0.00000000	    -32.24018869	    -12.08941117	      2.28040076
      2.86000000	     43.27201248	      2.22786661	     -2.31472125	     -0.81837572	      1.01958799	     -0.28291710	     13.30850981	    -10.15024847	     10.76840798	    -37.26284279	    -15.20725016	     11.74504875	      0.00000000	     14.86394708	    -13.92942870	     -5.31309597	    -57.70000875	    -22.19988228	     14.79252435	      0.00000000	    -32.20867996	    -12.20121228	      2.18419533
      2.87000000	     43.22241761	      2.33481514	     -2.25224535	     -0.81829432	      1.01937166	     -0.28263266	     13.44304502	    -10.24896956	     11.03838015	    -35.73792218	    -15.24223905	     11.75980391	      0.00000000	     14.94517598	    -13.88690019	     -5.26001244	    -57.74609399	    -22.14806760	     14.91628458	      0.00000000	    -32.15429415	    -12.31858829	      2.09815500
      2.88000000	     43.14085778	      2.44375751	     -2.22182891	     -0.81825036	      1.01917907	     -0.28233902	     13.63295742	    -10.34013615	     11.33956493	    -34.28186964	    -15.22615648	     11.79765783	      0.00000000	     15.06243920	    -13.82947838	     -5.22373879	    -57.80543241	    -22.08826825	     15.01321883	      0.00000000	    -32.08348424	    -12.44038983	      2.02026748
      2.89000000	     43.03293201	      2.56481030	     -2.20771949	     -0.81824401	      1.01899023	     -0.28205281	     13.86445448	    -10.43072687	     11.69991582	    -32.86632585	    -15.13365359	     11.84101960	      0.00000000	     15.22828967	    -13.74706589	     -5.19750118	    -57.89640506	    -22.02248214	     15.08227633	      0.00000000	    -32.00209299	    -12.56484398	      1.94327583
